# xmcd
#
# Track frame offsets:
#	150
#	15400
#	32439
#	44743
#	61380
#	80834
#	97332
#	114128
#	130678
#	148123
#
# Disc length: 2249 seconds
#
# Revision: 1
# Processed by: cddbd v1.5.2PL0 Copyright (c) Steve Scherf et al.
# Submitted via: audiograbber 1.83.01
#
DISCID=8508c70a
DTITLE=Garth Brooks - The Ultimate Hits
DYEAR=2007
DGENRE=Country
TTITLE0=More than a Memory
TTITLE1=Midnight Sun
TTITLE2=Workin' for a Livin'(duet Huey Lewis)
TTITLE3=Leave a light On
TTITLE4=Friends in low Places
TTITLE5=The Dance
TTITLE6=The thunder Rolls
TTITLE7=If tomorrow never Comes
TTITLE8=Standing outside the Fire
TTITLE9=Ain't going   Down(till the sun comes up)
EXTD=
EXTT0=
EXTT1=
EXTT2=
EXTT3=
EXTT4=
EXTT5=
EXTT6=
EXTT7=
EXTT8=
EXTT9=
PLAYORDER=
